<svg width="32" height="30" viewBox="0 0 32 30" fill="none" xmlns="http://www.w3.org/2000/svg">
<g clip-path="url(#clip0)">
<path d="M29.4087 29.621C30.356 29.621 31.1243 28.9058 31.1243 28.0237V2.27699C31.1243 1.39474 30.356 0.679688 29.4087 0.679688H1.75493C0.807203 0.679688 0.0393066 1.39474 0.0393066 2.27699V28.0237C0.0393066 28.9058 0.807203 29.621 1.75493 29.621H29.4087Z" fill="#028090"/>
<path d="M21.4873 29.6209V18.4134H25.528L26.133 14.0456H21.4873V11.2569C21.4873 9.99226 21.8646 9.13047 23.8124 9.13047L26.2966 9.12945V5.22296C25.8668 5.16971 24.3922 5.05078 22.6767 5.05078C19.0949 5.05078 16.6428 7.08627 16.6428 10.8244V14.0456H12.5918V18.4134H16.6428V29.6209H21.4873Z" fill="#FFFAF2"/>
</g>
<defs>
<clipPath id="clip0">
<rect x="0.0393066" y="0.679688" width="31.085" height="28.9412" fill="white"/>
</clipPath>
</defs>
</svg>
