<svg width="24" height="24" viewBox="0 0 24 24" fill="none" xmlns="http://www.w3.org/2000/svg">
<path d="M21.4286 0.145142H2.57143C1.15179 0.145142 0 1.28299 0 2.68546V21.3145C0 22.717 1.15179 23.8548 2.57143 23.8548H21.4286C22.8482 23.8548 24 22.717 24 21.3145V2.68546C24 1.28299 22.8482 0.145142 21.4286 0.145142ZM14.8554 20.4518C14.4054 20.5312 14.2393 20.256 14.2393 20.0285C14.2393 19.7427 14.25 18.282 14.25 17.1018C14.25 16.2762 13.9714 15.7522 13.6446 15.477C15.6268 15.2601 17.7161 14.9902 17.7161 11.6083C17.7161 10.6451 17.3679 10.1635 16.8 9.54434C16.8911 9.31676 17.1964 8.38002 16.7089 7.16278C15.9643 6.93521 14.2607 8.11011 14.2607 8.11011C13.5536 7.91429 12.7875 7.81374 12.0321 7.81374C11.2768 7.81374 10.5107 7.91429 9.80357 8.11011C9.80357 8.11011 8.1 6.93521 7.35536 7.16278C6.86786 8.37473 7.16786 9.31147 7.26429 9.54434C6.69643 10.1635 6.42857 10.6451 6.42857 11.6083C6.42857 14.9743 8.42679 15.2601 10.4089 15.477C10.1518 15.7046 9.92143 16.0962 9.84107 16.6572C9.33214 16.8848 8.03036 17.2764 7.25357 15.9216C6.76607 15.0854 5.8875 15.0166 5.8875 15.0166C5.01964 15.006 5.82857 15.5564 5.82857 15.5564C6.40714 15.821 6.81429 16.8372 6.81429 16.8372C7.33393 18.409 9.81964 17.8798 9.81964 17.8798C9.81964 18.6154 9.83036 19.8115 9.83036 20.0285C9.83036 20.256 9.66964 20.5312 9.21429 20.4518C5.67857 19.2822 3.20357 15.9586 3.20357 12.0741C3.20357 7.21571 6.96429 3.52695 11.8821 3.52695C16.8 3.52695 20.7857 7.21571 20.7857 12.0741C20.7911 15.9586 18.3911 19.2875 14.8554 20.4518ZM9.6 17.2182C9.49821 17.2394 9.40179 17.1971 9.39107 17.1283C9.38036 17.0489 9.45 16.9801 9.55179 16.9589C9.65357 16.9483 9.75 16.9907 9.76071 17.0595C9.77679 17.1283 9.70714 17.1971 9.6 17.2182ZM9.09107 17.1706C9.09107 17.2394 9.01071 17.2976 8.90357 17.2976C8.78571 17.3082 8.70536 17.25 8.70536 17.1706C8.70536 17.1018 8.78571 17.0436 8.89286 17.0436C8.99464 17.033 9.09107 17.0912 9.09107 17.1706ZM8.35714 17.1124C8.33571 17.1812 8.22857 17.2129 8.1375 17.1812C8.03571 17.16 7.96607 17.0806 7.9875 17.0118C8.00893 16.943 8.11607 16.9113 8.20714 16.9324C8.31429 16.9642 8.38393 17.0436 8.35714 17.1124ZM7.69821 16.8266C7.65 16.8848 7.54821 16.8742 7.46786 16.7948C7.3875 16.726 7.36607 16.6255 7.41964 16.5779C7.46786 16.5196 7.56964 16.5302 7.65 16.6096C7.71964 16.6784 7.74643 16.7843 7.69821 16.8266ZM7.21071 16.345C7.1625 16.3767 7.07143 16.345 7.0125 16.2656C6.95357 16.1862 6.95357 16.0963 7.0125 16.0592C7.07143 16.0116 7.1625 16.0486 7.21071 16.128C7.26964 16.2074 7.26964 16.3027 7.21071 16.345ZM6.8625 15.8316C6.81429 15.8793 6.73393 15.8528 6.675 15.7999C6.61607 15.7311 6.60536 15.6517 6.65357 15.6146C6.70179 15.567 6.78214 15.5935 6.84107 15.6464C6.9 15.7152 6.91071 15.7946 6.8625 15.8316ZM6.50357 15.44C6.48214 15.4876 6.4125 15.4982 6.35357 15.4612C6.28393 15.4294 6.25179 15.3712 6.27321 15.3236C6.29464 15.2918 6.35357 15.2759 6.42321 15.3024C6.49286 15.3394 6.525 15.3977 6.50357 15.44Z" fill="#05668D"/>
</svg>
