<svg width="35" height="34" viewBox="0 0 35 34" fill="none" xmlns="http://www.w3.org/2000/svg">
<g clip-path="url(#clip0)">
<path d="M17.4032 0.305665C8.16922 0.301861 0.690186 7.91871 0.690186 17.3199C0.690186 24.7541 5.36878 31.0736 11.8845 33.3944C12.7619 33.6189 12.6275 32.9835 12.6275 32.5498V29.6012C7.56059 30.2062 7.35523 26.7896 7.01544 26.2189C6.3284 25.0243 4.70415 24.7199 5.18955 24.1492C6.34333 23.5443 7.51952 24.3014 8.8824 26.3521C9.86815 27.8397 11.7911 27.5886 12.7657 27.3413C12.9785 26.4472 13.434 25.6482 14.0613 25.0281C8.81145 24.0693 6.62338 20.805 6.62338 16.9242C6.62338 15.041 7.23201 13.3099 8.42686 11.9136C7.66514 9.61176 8.4978 7.64097 8.60982 7.34801C10.7792 7.15017 13.0345 8.93074 13.21 9.07151C14.4422 8.7329 15.8499 8.55408 17.4256 8.55408C19.0088 8.55408 20.4202 8.74051 21.6636 9.08292C22.0855 8.75572 24.1765 7.22627 26.1928 7.41269C26.3011 7.70565 27.1151 9.63079 26.3982 11.9021C27.608 13.3022 28.2241 15.0486 28.2241 16.9357C28.2241 20.824 26.0211 24.0921 20.7563 25.0357C21.2072 25.4876 21.5653 26.0265 21.8095 26.6209C22.0538 27.2154 22.1793 27.8534 22.1789 28.4979V32.7781C22.2087 33.1205 22.1789 33.4591 22.739 33.4591C29.3517 31.1878 34.1125 24.8226 34.1125 17.3237C34.1125 7.91871 26.6297 0.305665 17.4032 0.305665Z" fill="black"/>
<path d="M17.4032 0.305665C8.16922 0.301861 0.690186 7.91871 0.690186 17.3199C0.690186 24.7541 5.36878 31.0736 11.8845 33.3944C12.7619 33.6189 12.6275 32.9835 12.6275 32.5498V29.6012C7.56059 30.2062 7.35523 26.7896 7.01544 26.2189C6.3284 25.0243 4.70415 24.7199 5.18955 24.1492C6.34333 23.5443 7.51952 24.3014 8.8824 26.3521C9.86815 27.8397 11.7911 27.5886 12.7657 27.3413C12.9785 26.4472 13.434 25.6482 14.0613 25.0281C8.81145 24.0693 6.62338 20.805 6.62338 16.9242C6.62338 15.041 7.23201 13.3099 8.42686 11.9136C7.66514 9.61176 8.4978 7.64097 8.60982 7.34801C10.7792 7.15017 13.0345 8.93074 13.21 9.07151C14.4422 8.7329 15.8499 8.55408 17.4256 8.55408C19.0088 8.55408 20.4202 8.74051 21.6636 9.08292C22.0855 8.75572 24.1765 7.22627 26.1928 7.41269C26.3011 7.70565 27.1151 9.63079 26.3982 11.9021C27.608 13.3022 28.2241 15.0486 28.2241 16.9357C28.2241 20.824 26.0211 24.0921 20.7563 25.0357C21.2072 25.4876 21.5653 26.0265 21.8095 26.6209C22.0538 27.2154 22.1793 27.8534 22.1789 28.4979V32.7781C22.2087 33.1205 22.1789 33.4591 22.739 33.4591C29.3517 31.1878 34.1125 24.8226 34.1125 17.3237C34.1125 7.91871 26.6297 0.305665 17.4032 0.305665Z" fill="#028090"/>
</g>
<defs>
<clipPath id="clip0">
<rect width="34.8366" height="33.7647" fill="white"/>
</clipPath>
</defs>
</svg>
