<svg width="25" height="18" viewBox="0 0 25 18" fill="none" xmlns="http://www.w3.org/2000/svg">
<path d="M21.6552 16.4912L12.801 10.5701C12.6209 10.4496 12.3801 10.4496 12.2 10.5701L3.34585 16.4912C3.20732 16.5837 3.1249 16.7342 3.125 16.8948V17.3882C3.12495 17.6607 3.35815 17.8817 3.6458 17.8817H21.3542C21.6418 17.8817 21.875 17.6607 21.875 17.3882V16.8948C21.8753 16.7345 21.7933 16.5839 21.6552 16.4912Z" fill="#CFD8DC"/>
<path d="M12.801 10.57L3.94688 4.64891C3.71216 4.4914 3.38706 4.544 3.2208 4.76636C3.15825 4.85 3.12476 4.95001 3.125 5.05252V16.8946C3.12442 17.1671 3.35718 17.3885 3.64483 17.389C3.75303 17.3892 3.8586 17.3575 3.94688 17.2983L12.801 11.3772C13.036 11.2201 13.0921 10.9122 12.9262 10.6896C12.8919 10.6436 12.8496 10.6035 12.801 10.571V10.57Z" fill="#FAFAFA"/>
<path d="M21.5938 4.61452C21.4207 4.5307 21.2129 4.54397 21.0532 4.64907L12.1991 10.5701C11.9641 10.7273 11.908 11.0351 12.0739 11.2578C12.1081 11.3038 12.1505 11.3439 12.1991 11.3764L21.0532 17.2974C21.2879 17.4549 21.613 17.4023 21.7793 17.18C21.8416 17.0966 21.8751 16.997 21.8751 16.8948V5.05267C21.8751 4.86829 21.7666 4.69931 21.5938 4.61452Z" fill="#EEEEEE"/>
<path d="M22.8906 0.457897C22.8204 0.255332 22.6208 0.118408 22.3958 0.118408H2.6041C2.31646 0.118408 2.08325 0.339338 2.08325 0.611845C2.08325 0.767134 2.16045 0.913402 2.2916 1.00657L12.1875 7.91445C12.3711 8.04258 12.6215 8.04258 12.8052 7.91445L22.701 1.00657C22.8823 0.881438 22.9587 0.660369 22.8906 0.457897Z" fill="#ECEFF1"/>
<path d="M22.3959 0.118408C22.2832 0.118408 22.1735 0.153056 22.0834 0.217077L12.5 6.9069L2.91665 0.217077C2.82651 0.153056 2.71685 0.118408 2.60415 0.118408C1.16592 0.118408 0 1.22296 0 2.5855V15.4144C0 16.777 1.16592 17.8816 2.60415 17.8816H3.6458C3.93345 17.8816 4.16665 17.6606 4.16665 17.3881V6.00491L12.1989 11.3773C12.3791 11.4978 12.6198 11.4978 12.8 11.3773L20.8333 6.00491V17.3881C20.8333 17.6606 21.0665 17.8816 21.3542 17.8816H22.3958C23.8341 17.8816 25 16.777 25 15.4145V2.5855C25 1.22296 23.8341 0.118408 22.3959 0.118408Z" fill="#028090"/>
</svg>
