<svg width="33" height="32" viewBox="0 0 33 32" fill="none" xmlns="http://www.w3.org/2000/svg">
<g clip-path="url(#clip0)">
<path d="M6.71847 0.081543C3.1969 0.081543 0.314697 2.86918 0.314697 6.27536V25.4959C0.314697 28.902 3.19683 31.6887 6.71847 31.6887H26.5905C30.1121 31.6887 32.9932 28.902 32.9932 25.4959V6.27536C32.9932 2.86924 30.1121 0.081543 26.5905 0.081543H6.71847ZM8.32911 5.29735C10.0176 5.29735 11.0577 6.36949 11.0898 7.7788C11.0898 9.157 10.0176 10.2593 8.29645 10.2593H8.26478C6.60839 10.2593 5.5378 9.15707 5.5378 7.7788C5.5378 6.36952 6.64079 5.29735 8.32908 5.29735H8.32911ZM22.88 11.8843C26.1274 11.8843 28.5617 13.9372 28.5617 18.3488V26.5844H23.6266V18.9009C23.6266 16.9702 22.9124 15.6529 21.1264 15.6529C19.763 15.6529 18.9503 16.5407 18.5935 17.3984C18.4632 17.7053 18.4311 18.1338 18.4311 18.5631V26.5844H13.4961C13.4961 26.5844 13.5608 13.5688 13.4961 12.2211H18.4321V14.2551C19.088 13.2765 20.261 11.8843 22.88 11.8843V11.8843ZM5.8289 12.2222H10.764V26.5845H5.8289V12.2222Z" fill="#028090"/>
</g>
<defs>
<clipPath id="clip0">
<rect x="0.307373" y="0.0717773" width="32.6928" height="31.6209" fill="white"/>
</clipPath>
</defs>
</svg>
