<svg width="25" height="25" viewBox="0 0 25 25" fill="none" xmlns="http://www.w3.org/2000/svg">
<path d="M12.5002 2.08325C8.46891 2.08325 5.2085 5.34367 5.2085 9.37492C5.2085 13.7187 9.81266 19.7083 11.7085 21.9895C12.1252 22.4895 12.8856 22.4895 13.3022 21.9895C15.1877 19.7083 19.7918 13.7187 19.7918 9.37492C19.7918 5.34367 16.5314 2.08325 12.5002 2.08325ZM12.5002 11.9791C11.8095 11.9791 11.1471 11.7047 10.6587 11.2163C10.1704 10.728 9.896 10.0656 9.896 9.37492C9.896 8.68425 10.1704 8.02187 10.6587 7.53349C11.1471 7.04512 11.8095 6.77075 12.5002 6.77075C13.1908 6.77075 13.8532 7.04512 14.3416 7.53349C14.83 8.02187 15.1043 8.68425 15.1043 9.37492C15.1043 10.0656 14.83 10.728 14.3416 11.2163C13.8532 11.7047 13.1908 11.9791 12.5002 11.9791Z" fill="#028090"/>
</svg>
