<svg width="35" height="28" viewBox="0 0 35 28" fill="none" xmlns="http://www.w3.org/2000/svg">
<g clip-path="url(#clip0)">
<path d="M34.8562 4.01589C33.5743 4.55145 32.1969 4.91341 30.7512 5.07624C32.227 4.24283 33.3601 2.92309 33.8937 1.35064C32.4908 2.13505 30.9558 2.68772 29.3553 2.98476C28.0515 1.67605 26.1941 0.858154 24.1384 0.858154C20.1913 0.858154 16.9911 3.87331 16.9911 7.59212C16.9911 8.11999 17.0544 8.63389 17.1761 9.12688C11.2363 8.84596 5.96999 6.16506 2.44485 2.09083C1.82977 3.08542 1.47732 4.24232 1.47732 5.47628C1.47732 7.81266 2.73919 9.87375 4.65682 11.0814C3.52185 11.0479 2.41185 10.7591 1.41949 10.239C1.41908 10.2672 1.41908 10.2955 1.41908 10.3238C1.41908 13.5865 3.88267 16.3083 7.15211 16.927C6.09966 17.1967 4.9957 17.2361 3.92458 17.0424C4.834 19.7178 7.47354 21.6646 10.6009 21.7191C8.15489 23.5252 5.07309 24.6018 1.72472 24.6018C1.14774 24.6018 0.578926 24.5699 0.0197754 24.5077C3.18267 26.4184 6.93942 27.5332 10.9755 27.5332C24.1218 27.5332 31.3105 17.2719 31.3105 8.37309C31.3105 8.08101 31.3037 7.7906 31.2898 7.50186C32.689 6.5488 33.8967 5.36834 34.8562 4.01589Z" fill="#028090"/>
</g>
<defs>
<clipPath id="clip0">
<rect x="0.0197754" y="0.751709" width="34.8366" height="26.7974" fill="white"/>
</clipPath>
</defs>
</svg>
